<?xml version="1.0" standalone="no"?>
<!DOCTYPE svg PUBLIC "-//W3C//DTD SVG 20010904//EN"
 "http://www.w3.org/TR/2001/REC-SVG-20010904/DTD/svg10.dtd">
<svg version="1.0" xmlns="http://www.w3.org/2000/svg"
 width="2304.000000pt" height="738.000000pt" viewBox="0 0 2304.000000 738.000000"
 preserveAspectRatio="xMidYMid meet">
<metadata>
Created by potrace 1.10, written by Peter Selinger 2001-2011
</metadata>
<g transform="translate(0.000000,738.000000) scale(0.100000,-0.100000)"
fill="#000000" stroke="none">
<path d="M6545 6892 c-14 -10 -47 -61 -62 -96 -20 -44 -16 -167 6 -218 21 -49
63 -98 84 -98 30 0 28 33 -3 65 -61 63 -64 229 -5 292 29 32 33 63 8 63 -10 0
-23 -4 -28 -8z"/>
<path d="M6975 6891 c-3 -5 8 -30 25 -55 54 -80 54 -229 0 -282 -30 -30 -38
-58 -19 -70 42 -26 119 106 119 202 0 54 -22 142 -39 154 -3 3 -14 17 -24 33
-17 26 -50 36 -62 18z"/>
<path d="M6860 6873 c-25 -10 -30 -27 -14 -44 14 -16 14 -21 1 -51 -9 -18 -19
-49 -22 -68 -14 -70 -91 -116 -125 -75 -20 24 17 172 48 192 41 28 28 43 -38
43 -53 0 -60 -2 -60 -19 0 -11 5 -23 11 -26 6 -4 7 -14 3 -24 -3 -9 -12 -43
-20 -76 -18 -82 -6 -119 47 -145 39 -18 41 -18 82 -1 51 22 97 75 97 112 0 15
4 30 9 33 5 3 12 26 15 50 5 32 13 47 27 51 26 9 24 41 -3 49 -27 7 -37 7 -58
-1z"/>
<path d="M6161 6744 c-34 -57 -28 -96 20 -137 24 -21 36 -38 30 -42 -12 -7
-15 -62 -3 -68 17 -10 52 13 52 35 0 33 11 45 47 52 18 4 48 22 67 40 31 28
36 38 36 78 0 55 -18 78 -61 78 -35 0 -89 -52 -89 -86 0 -11 -9 -29 -20 -39
-20 -18 -21 -18 -40 1 -18 19 -18 20 2 62 18 37 19 45 7 53 -22 14 -26 11 -48
-27z m208 -28 c15 -18 2 -47 -33 -70 -23 -15 -66 -22 -66 -11 0 14 28 63 45
77 25 21 39 22 54 4z"/>
<path d="M5542 6587 c-12 -15 -1 -46 27 -71 11 -11 21 -24 21 -30 0 -6 8 -24
17 -41 13 -23 17 -56 18 -145 0 -125 -13 -171 -69 -237 -41 -49 -11 -88 34
-43 105 105 133 331 58 470 -41 78 -87 120 -106 97z"/>
<path d="M4974 6543 c-64 -98 -69 -117 -69 -253 0 -122 1 -126 33 -183 50 -90
88 -121 113 -91 10 12 7 20 -13 42 -42 47 -57 78 -74 158 -13 65 -14 88 -3
143 12 68 47 161 60 161 6 0 39 56 39 67 0 1 -12 3 -28 3 -22 0 -34 -10 -58
-47z"/>
<path d="M8108 6562 c-21 -26 -31 -43 -69 -126 -9 -19 -14 -68 -14 -145 0
-106 2 -121 27 -172 33 -67 65 -104 96 -114 34 -10 40 20 10 53 -42 46 -55 74
-73 158 -16 76 -16 85 0 160 13 56 29 95 56 136 22 32 39 62 39 68 0 21 -49 9
-72 -18z"/>
<path d="M8660 6580 c0 -6 16 -33 35 -61 46 -68 59 -116 59 -224 0 -109 -13
-158 -59 -218 -44 -57 -46 -82 -7 -72 27 6 61 41 81 80 43 87 46 101 46 211 0
61 -5 122 -11 135 -6 13 -16 35 -22 49 -21 54 -71 110 -97 110 -14 0 -25 -5
-25 -10z"/>
<path d="M4527 6550 c-89 -48 -146 -126 -127 -174 8 -23 15 -26 60 -26 36 0
65 7 96 25 49 28 57 17 21 -29 -18 -22 -35 -30 -76 -37 -55 -8 -85 -25 -75
-40 9 -15 44 -10 50 6 7 16 54 21 54 6 0 -14 -65 -73 -102 -93 -56 -31 -103
-21 -71 14 19 22 9 50 -21 56 -21 4 -66 -42 -66 -68 0 -59 126 -81 203 -35 42
25 92 70 125 114 16 21 21 22 40 10 18 -12 24 -11 44 9 13 13 36 33 52 46 20
15 27 28 23 39 -9 25 -41 21 -77 -9 -60 -51 -52 7 11 76 37 40 45 44 87 45 43
0 47 2 47 25 0 19 -6 26 -25 28 -14 2 -44 10 -68 18 -64 21 -159 18 -205 -6z
m146 -30 c28 0 19 -33 -18 -63 l-34 -27 -9 32 c-11 44 -28 46 -36 4 -11 -60
-83 -104 -125 -77 -12 8 -12 14 4 37 41 62 126 109 180 98 11 -2 28 -4 38 -4z"/>
<path d="M7841 6553 c-80 -62 -195 -213 -186 -244 8 -23 58 -51 78 -43 7 2 19
-2 26 -10 10 -12 7 -20 -16 -46 -22 -25 -39 -33 -76 -37 -44 -5 -63 6 -37 22
6 3 10 17 10 31 0 36 -42 33 -69 -5 -26 -36 -26 -37 0 -64 17 -19 31 -22 98
-22 75 0 78 1 113 35 19 19 43 57 53 85 10 27 31 70 47 94 22 35 25 47 16 58
-9 11 -6 19 13 36 13 12 33 35 42 50 17 26 17 30 2 53 -19 30 -79 33 -114 7z
m63 -32 c12 -19 -99 -141 -129 -141 -23 0 -18 12 23 61 68 80 94 100 106 80z
m-64 -151 c0 -14 -73 -90 -86 -90 -6 0 -16 6 -22 13 -14 16 17 54 52 63 14 3
29 10 32 15 7 12 24 11 24 -1z"/>
<path d="M5114 6548 c-3 -4 4 -20 16 -36 19 -26 20 -31 6 -77 -54 -189 -55
-197 -29 -243 37 -64 131 -83 189 -39 79 58 90 81 129 265 7 35 14 64 16 66 2
1 16 10 32 19 15 10 27 26 27 38 0 18 -5 20 -72 17 -67 -3 -73 -5 -70 -23 2
-11 10 -27 18 -36 14 -16 10 -71 -6 -94 -4 -5 -10 -23 -14 -40 -28 -128 -69
-185 -135 -185 -45 0 -66 30 -58 82 9 56 27 132 36 158 5 14 12 36 15 50 3 16
16 29 36 37 20 7 30 18 30 31 0 19 -6 20 -80 19 -45 0 -83 -4 -86 -9z"/>
<path d="M7645 6542 c-45 -23 -92 -74 -110 -120 -16 -38 -16 -43 1 -71 17 -30
39 -41 82 -41 30 0 29 28 -3 36 -63 16 -25 104 69 159 22 13 26 49 6 51 -8 1
-28 -5 -45 -14z"/>
<path d="M8240 6540 c0 -10 7 -23 15 -30 19 -16 19 -57 1 -112 -55 -167 -32
-254 70 -266 60 -6 87 3 126 42 53 55 61 66 69 105 14 59 37 154 46 184 5 15
19 33 33 40 14 7 26 23 28 35 3 21 0 22 -67 22 -40 0 -73 -5 -77 -11 -3 -6 3
-23 14 -39 18 -24 19 -33 11 -71 -6 -24 -14 -51 -19 -60 -5 -9 -11 -37 -15
-62 -10 -67 -73 -137 -122 -137 -40 0 -62 21 -63 60 0 34 50 232 63 249 6 7
21 17 34 22 13 5 23 17 23 28 0 18 -7 20 -85 19 -74 -1 -85 -3 -85 -18z"/>
<path d="M7220 6391 c0 -10 7 -24 15 -31 43 -36 31 -36 -636 -33 -684 4 -691
4 -668 -39 10 -18 25 -19 664 -16 651 3 655 3 649 -17 -4 -11 -11 -21 -15 -23
-13 -5 -11 -29 2 -37 12 -8 109 83 109 102 0 15 -94 113 -109 113 -6 0 -11 -8
-11 -19z"/>
<path d="M4990 5816 c-9 -11 -11 -137 -8 -515 2 -276 -1 -501 -5 -501 -4 0
-19 7 -32 16 -13 9 -29 13 -35 9 -18 -11 -11 -32 18 -51 15 -10 35 -28 45 -41
22 -27 57 -30 64 -5 2 9 22 30 44 45 21 16 39 32 39 36 0 16 -40 19 -54 5 -8
-8 -18 -14 -23 -14 -4 0 -7 221 -5 491 2 270 1 502 -2 515 -7 27 -28 31 -46
10z"/>
<path d="M8175 5813 c-3 -10 -6 -241 -5 -513 1 -272 1 -499 1 -504 -1 -6 -10
0 -22 13 -12 12 -28 20 -36 17 -8 -3 -17 -6 -19 -6 -2 0 -4 -7 -4 -15 0 -8 5
-15 12 -15 6 0 30 -20 54 -45 l41 -45 47 45 c26 25 52 45 57 45 12 0 12 27 -1
35 -5 3 -23 -1 -39 -10 -17 -8 -33 -15 -36 -15 -4 0 -5 226 -4 503 1 277 -1
509 -5 515 -11 18 -33 15 -41 -5z"/>
<path d="M4389 5453 c-32 -37 -53 -78 -69 -136 -21 -78 6 -173 68 -239 28 -31
31 -32 51 -19 11 7 11 13 1 32 -7 13 -16 26 -19 29 -51 41 -64 195 -22 263 13
20 27 37 32 37 5 0 9 14 9 30 0 38 -18 39 -51 3z"/>
<path d="M4640 5463 c0 -9 11 -30 24 -48 14 -17 31 -57 39 -88 13 -50 13 -65
1 -118 -8 -36 -26 -77 -43 -98 -19 -24 -27 -42 -22 -50 19 -30 71 14 111 93
22 42 20 180 -2 227 -35 72 -108 128 -108 82z"/>
<path d="M8844 5448 c-43 -48 -64 -112 -64 -195 0 -40 5 -75 10 -78 6 -3 10
-13 10 -22 0 -22 68 -103 86 -103 28 0 26 30 -4 68 -38 48 -55 131 -42 204 10
51 18 67 53 101 10 11 17 26 15 35 -6 29 -33 24 -64 -10z"/>
<path d="M9109 5468 c-2 -21 2 -43 10 -48 3 -3 15 -18 26 -35 16 -24 20 -47
20 -120 0 -86 -1 -93 -32 -135 -37 -49 -41 -68 -17 -77 23 -9 79 58 98 117 18
54 21 155 6 165 -5 3 -10 17 -10 29 0 47 -97 146 -101 104z"/>
<path d="M4020 5438 c-69 -45 -90 -80 -74 -122 8 -22 109 -23 118 -1 3 8 10
15 16 15 5 0 10 -7 10 -15 0 -8 -5 -15 -11 -15 -14 0 -48 -41 -49 -60 -1 -19
-67 -62 -89 -58 -9 2 -17 15 -19 31 -4 31 -31 37 -56 11 -37 -37 -11 -74 58
-81 55 -7 103 15 155 72 26 28 43 40 52 34 17 -10 89 41 89 64 0 22 -42 23
-60 2 -8 -10 -17 -12 -23 -6 -6 6 3 22 23 45 25 27 41 36 74 38 28 2 41 8 41
18 0 25 -56 43 -140 47 -70 4 -84 1 -115 -19z m137 -33 c2 -6 -7 -16 -18 -23
-18 -12 -24 -11 -36 1 -9 8 -12 20 -8 27 8 13 57 10 62 -5z m-81 -15 c-3 -11
-9 -29 -12 -40 -4 -15 -14 -20 -39 -20 -47 0 -52 16 -15 50 38 35 74 41 66 10z"/>
<path d="M8624 5438 c-37 -29 -68 -64 -95 -106 -17 -26 -27 -32 -48 -30 -45 5
-40 43 13 90 25 23 46 45 46 50 0 4 -13 8 -30 8 -16 0 -30 -4 -30 -10 0 -5 -6
-10 -13 -10 -22 0 -77 -75 -77 -105 0 -21 50 -55 80 -55 15 0 41 -7 58 -16 18
-8 36 -13 41 -10 22 14 21 -17 0 -40 -30 -32 -71 -29 -79 5 -7 32 -22 36 -45
11 -15 -16 -16 -25 -7 -44 8 -19 22 -26 55 -31 83 -13 127 14 157 95 12 33 26
60 31 60 5 0 9 13 9 28 0 16 9 37 20 47 14 13 20 29 18 49 -3 28 -7 31 -39 34
-25 2 -44 -4 -65 -20z m56 -27 c0 -4 -11 -20 -25 -35 -14 -15 -25 -31 -25 -37
0 -5 -7 -9 -15 -9 -24 0 -17 26 16 59 30 31 49 39 49 22z m-83 -138 c-15 -15
-17 -15 -23 1 -8 21 16 40 30 26 7 -7 4 -16 -7 -27z"/>
<path d="M9020 5435 c-16 -19 -8 -49 14 -53 25 -5 39 12 32 36 -9 26 -31 35
-46 17z"/>
<path d="M4550 5425 c-10 -12 -10 -18 0 -30 20 -25 55 -15 55 15 0 30 -35 40
-55 15z"/>
<path d="M8979 5345 c-28 -15 -54 -61 -39 -70 5 -3 11 -1 15 5 3 5 11 10 17
10 10 0 8 -19 -7 -82 -14 -54 52 -79 93 -35 12 13 22 31 22 40 0 20 -26 23
-33 5 -2 -7 -8 -10 -13 -5 -4 4 -2 22 4 40 18 49 15 73 -11 90 -19 12 -27 13
-48 2z"/>
<path d="M4508 5338 c-26 -22 -29 -46 -7 -62 19 -13 20 -18 9 -50 -15 -46 0
-76 39 -76 32 0 61 27 61 58 0 24 -19 29 -38 10 -9 -9 -12 -9 -12 0 0 7 4 12
9 12 16 0 25 88 11 105 -15 18 -51 19 -72 3z"/>
<path d="M3980 5254 c0 -9 7 -14 17 -12 25 5 28 28 4 28 -12 0 -21 -6 -21 -16z"/>
<path d="M6515 4802 c-45 -60 -49 -76 -50 -172 0 -71 4 -104 17 -130 30 -59
52 -82 78 -78 33 4 34 19 5 50 -32 35 -55 101 -55 160 0 50 27 125 54 147 9 7
16 22 16 32 0 29 -41 23 -65 -9z"/>
<path d="M6980 4815 c0 -9 11 -27 24 -41 13 -14 31 -52 40 -85 15 -55 15 -64
0 -123 -9 -36 -26 -74 -41 -90 -28 -31 -27 -63 2 -58 24 4 59 43 83 92 24 50
23 182 -1 234 -11 21 -28 49 -40 62 -23 27 -67 33 -67 9z"/>
<path d="M6630 4797 c0 -8 7 -28 16 -46 8 -17 22 -70 29 -117 8 -48 17 -95 21
-106 9 -29 44 -19 63 18 10 18 24 39 32 47 21 24 30 36 73 99 22 32 47 60 58
63 11 4 18 16 18 31 0 23 -3 25 -42 22 -39 -3 -43 -5 -46 -33 -2 -16 -7 -32
-11 -35 -11 -8 -71 -109 -71 -120 0 -6 -6 -10 -13 -10 -24 0 -48 142 -27 155
6 3 10 15 10 26 0 16 -7 19 -55 19 -39 0 -55 -4 -55 -13z"/>
<path d="M6173 4698 c-24 -38 -33 -64 -33 -94 0 -27 8 -39 40 -65 27 -22 37
-36 30 -43 -5 -5 -10 -23 -10 -38 0 -23 4 -28 25 -28 26 0 29 4 39 51 5 21 14
28 41 33 21 4 50 21 70 42 31 30 35 41 35 84 0 54 -15 70 -65 70 -33 0 -85
-52 -85 -85 0 -12 -9 -30 -20 -40 -16 -15 -22 -15 -35 -5 -19 16 -19 34 2 77
14 30 14 36 2 44 -19 12 -26 11 -36 -3z m201 -53 c8 -22 -11 -49 -50 -70 -41
-22 -57 -14 -41 23 23 52 78 80 91 47z"/>
<path d="M4981 4495 c-46 -53 -70 -106 -87 -195 -11 -60 -12 -90 -4 -118 5
-20 10 -47 10 -60 0 -25 35 -108 54 -127 6 -7 21 -24 34 -39 13 -15 28 -26 35
-23 22 7 18 34 -12 79 -44 66 -61 123 -61 213 0 107 27 190 78 244 15 16 12
53 -4 58 -6 2 -25 -12 -43 -32z"/>
<path d="M8663 4513 c-4 -9 -1 -19 5 -21 7 -2 12 -8 12 -12 0 -5 13 -28 28
-52 47 -70 63 -193 41 -299 -12 -53 -63 -149 -80 -149 -11 0 -12 -37 -1 -44
35 -21 97 52 132 156 19 56 22 83 18 160 -2 51 -9 102 -15 113 -5 11 -21 42
-34 68 -36 73 -93 115 -106 80z"/>
<path d="M5540 4510 c0 -6 18 -36 40 -69 51 -75 68 -171 51 -286 -11 -73 -59
-175 -83 -175 -5 0 -8 -10 -6 -22 2 -17 9 -22 26 -20 31 3 55 32 95 112 30 62
32 71 32 180 0 106 -2 120 -28 173 -38 77 -73 117 -103 117 -13 0 -24 -5 -24
-10z"/>
<path d="M8107 4490 c-14 -16 -38 -56 -54 -87 -26 -54 -28 -66 -28 -178 0
-111 2 -124 28 -175 36 -73 66 -107 97 -112 33 -4 37 20 8 52 -42 45 -55 74
-73 156 -16 77 -16 84 0 160 16 72 38 131 54 144 9 7 41 58 41 65 0 3 -11 5
-24 5 -15 0 -34 -12 -49 -30z"/>
<path d="M4582 4499 c-84 -16 -185 -109 -185 -170 0 -17 6 -35 14 -40 28 -17
99 -10 145 16 49 27 50 27 29 -15 -18 -34 -40 -48 -77 -48 -37 1 -90 -22 -85
-36 6 -18 33 -18 50 -1 17 16 57 21 57 6 0 -20 -103 -101 -135 -107 -46 -8
-61 3 -39 28 14 14 16 23 8 36 -18 28 -49 26 -73 -4 -27 -34 -27 -49 4 -79 20
-21 34 -25 80 -25 72 0 127 31 197 112 45 51 54 57 64 44 15 -21 19 -20 46 5
13 11 36 30 52 43 20 15 27 28 23 39 -9 24 -41 21 -75 -8 -36 -30 -42 -31 -42
-6 0 10 21 44 46 75 45 54 47 56 93 53 43 -2 46 0 46 23 0 19 -7 26 -30 32
-77 19 -160 37 -165 37 -3 -1 -24 -5 -48 -10z m77 -45 c41 -9 40 -32 -3 -66
-36 -29 -46 -24 -46 23 0 31 -27 22 -34 -12 -12 -60 -83 -106 -124 -80 -12 7
-11 13 1 37 24 46 73 80 132 95 42 10 39 10 74 3z"/>
<path d="M7844 4490 c-30 -12 -121 -107 -161 -167 -34 -54 -49 -61 -84 -43
-44 24 -1 119 69 153 29 13 43 57 19 57 -43 0 -115 -56 -155 -121 -28 -47 -28
-61 4 -98 21 -25 33 -31 66 -31 28 0 49 -7 71 -26 21 -17 37 -24 53 -20 50 13
37 -38 -20 -73 -53 -33 -113 -26 -81 9 34 37 -14 74 -51 39 -31 -29 -35 -55
-13 -81 31 -34 134 -39 186 -7 48 29 60 44 74 93 6 21 23 57 37 80 37 56 41
69 29 84 -7 9 0 22 27 48 27 26 36 43 36 68 0 22 -6 36 -16 40 -21 8 -65 6
-90 -4z m49 -37 c17 -16 -106 -148 -130 -139 -19 8 -7 29 55 94 50 51 62 59
75 45z m-63 -153 c0 -9 -75 -90 -84 -90 -14 0 -36 14 -36 23 0 19 41 56 56 50
8 -3 17 2 20 11 7 17 44 23 44 6z"/>
<path d="M5090 4478 c0 -7 11 -23 24 -37 26 -27 43 -117 53 -281 3 -41 9 -80
14 -86 17 -21 49 -2 71 39 19 39 56 96 69 107 3 3 16 23 29 45 13 22 30 46 37
53 7 7 13 20 13 28 0 8 5 14 10 14 6 0 10 6 10 13 0 16 42 57 58 57 15 0 35
37 27 50 -8 13 -122 13 -129 1 -4 -5 -2 -21 4 -36 9 -24 5 -35 -33 -93 -24
-37 -53 -89 -66 -115 -37 -78 -55 -51 -67 103 -6 78 -5 87 15 104 40 36 28 46
-59 46 -55 0 -80 -4 -80 -12z"/>
<path d="M8210 4476 c0 -8 11 -23 25 -34 26 -21 32 -50 54 -287 3 -38 9 -75
14 -82 12 -19 49 -2 62 31 7 17 29 51 47 76 19 25 45 63 58 85 13 22 30 46 37
53 7 7 13 20 13 27 0 13 53 71 94 103 29 23 12 37 -49 40 -68 4 -80 -4 -65
-43 9 -24 8 -33 -10 -56 -11 -16 -20 -33 -20 -39 0 -5 -4 -10 -9 -10 -5 0 -14
-12 -20 -27 -21 -52 -62 -118 -74 -118 -14 0 -23 44 -32 150 -6 73 -5 82 14
99 40 36 28 46 -59 46 -63 0 -80 -3 -80 -14z"/>
<path d="M7220 4321 c0 -10 7 -24 15 -31 9 -7 14 -17 13 -22 -2 -5 -282 -10
-658 -11 -648 -2 -655 -2 -655 -22 0 -20 7 -20 655 -22 369 -1 656 -6 658 -11
1 -5 -4 -15 -13 -22 -15 -13 -21 -60 -7 -60 9 0 112 105 112 114 0 12 -97 106
-108 106 -7 0 -12 -8 -12 -19z"/>
</g>
</svg>
